<svg width="16" height="16" viewBox="0 0 16 16" fill="none" xmlns="http://www.w3.org/2000/svg">
<g id="icon-eye.7599250f.svg">
<path id="Vector" d="M14.1717 7.3106C14.4877 7.72394 14.4877 8.28194 14.1717 8.6946C13.1763 9.99394 10.7883 12.6693 8.00033 12.6693C5.21233 12.6693 2.82433 9.99394 1.829 8.6946C1.67526 8.49669 1.5918 8.25322 1.5918 8.0026C1.5918 7.75199 1.67526 7.50852 1.829 7.3106C2.82433 6.01127 5.21233 3.33594 8.00033 3.33594C10.7883 3.33594 13.1763 6.01127 14.1717 7.3106Z" stroke="black" stroke-opacity="0.35" stroke-width="1.5" stroke-linecap="round" stroke-linejoin="round"/>
<path id="Vector_2" d="M8 10C9.10457 10 10 9.10457 10 8C10 6.89543 9.10457 6 8 6C6.89543 6 6 6.89543 6 8C6 9.10457 6.89543 10 8 10Z" stroke="black" stroke-opacity="0.35" stroke-width="1.5" stroke-linecap="round" stroke-linejoin="round"/>
</g>
</svg>
