<svg width="214" height="46" viewBox="0 0 214 46" fill="none" xmlns="http://www.w3.org/2000/svg">
<g id="logo-img.2935c262.svg" clip-path="url(#clip0_715_2905)">
<g id="Layer 1">
<path id="Vector" d="M0 13.285C0 12.9669 0.14314 12.8079 0.424119 12.8079H1.82371C1.91914 12.8079 2.01457 12.8344 2.10469 12.8821C2.20012 12.9351 2.27964 13.0305 2.34856 13.179L8.75276 25.8018L9.16628 27.0212L9.03904 25.7859L8.93831 13.2797C8.93831 13.1419 8.97542 13.0305 9.04965 12.9404C9.12387 12.8503 9.2299 12.8079 9.37834 12.8079H10.8203C10.9423 12.8079 11.0377 12.845 11.1172 12.9192C11.1967 12.9934 11.2339 13.11 11.2339 13.2744V30.6792C11.2339 30.9867 11.0854 31.1404 10.7832 31.1404H9.42075C9.32532 31.1404 9.2299 31.1192 9.12387 31.0715C9.02314 31.0238 8.93831 30.9284 8.88 30.7799L2.50761 18.3373L2.05698 17.0756L2.20012 18.3479L2.27964 30.6633C2.27964 30.9814 2.1418 31.1404 1.86612 31.1404H0.424119C0.14314 31.1404 0 30.9814 0 30.6633V13.285Z" fill="black"/>
<path id="Vector_2" d="M26.6083 30.6527C26.6613 30.8012 26.656 30.9178 26.5871 31.0079C26.5235 31.098 26.428 31.1405 26.2955 31.1405H24.6361C24.5407 31.1405 24.4506 31.114 24.3551 31.0609C24.2597 31.0079 24.1961 30.9125 24.1643 30.7641L23.3055 27.3817H17.7495L16.9013 30.7641C16.8694 30.9125 16.8058 31.0079 16.7104 31.0609C16.615 31.114 16.5195 31.1405 16.4294 31.1405H14.7701C14.6428 31.1405 14.5474 31.0927 14.4891 31.0079C14.4308 30.9178 14.4202 30.8012 14.4626 30.6527L19.3611 13.1949C19.4036 13.0518 19.4672 12.9457 19.5467 12.8874C19.6262 12.8291 19.7216 12.7973 19.8224 12.7973H21.2485C21.3492 12.7973 21.4446 12.8291 21.5295 12.8874C21.6143 12.9457 21.6779 13.0518 21.7203 13.1949L26.603 30.6527H26.6083ZM18.3061 25.2293H22.7647L20.7342 17.1816L20.5434 15.8192L20.3525 17.1816L18.3114 25.2293H18.3061Z" fill="black"/>
<path id="Vector_3" d="M34.5232 13.2744C34.5232 13.1048 34.5656 12.9828 34.6504 12.9139C34.7353 12.845 34.8254 12.8132 34.9208 12.8132H36.4635C36.6332 12.8132 36.7498 12.8556 36.8187 12.9457C36.8824 13.0358 36.9142 13.1631 36.9142 13.3274L36.8983 26.9151C36.8983 27.599 36.7816 28.2246 36.5431 28.7813C36.3098 29.3379 35.9864 29.8098 35.5835 30.2021C35.1806 30.5944 34.7035 30.8966 34.1574 31.1086C33.6113 31.3207 33.0229 31.432 32.3973 31.432C31.7293 31.432 31.0878 31.3048 30.4782 31.0503C29.8685 30.7958 29.3649 30.4565 28.9672 30.0271C28.8824 29.9423 28.8135 29.831 28.7605 29.6931C28.7075 29.5553 28.7446 29.428 28.8612 29.3061L29.6988 28.3306C29.8208 28.2087 29.9374 28.161 30.054 28.1875C30.1707 28.214 30.2767 28.2776 30.3668 28.3784C30.5524 28.5586 30.8122 28.7336 31.1462 28.8979C31.4748 29.0622 31.8566 29.1471 32.2807 29.1471C32.6094 29.1471 32.9062 29.0834 33.1819 28.9615C33.4576 28.8396 33.6909 28.6646 33.887 28.442C34.0832 28.2193 34.2369 27.9489 34.3483 27.6308C34.4596 27.3128 34.5126 26.9682 34.5126 26.5917V13.2744H34.5232Z" fill="black"/>
<path id="Vector_4" d="M40.4451 18.7244C40.4451 17.8761 40.567 17.0756 40.8056 16.3175C41.0441 15.5647 41.4046 14.902 41.8818 14.3294C42.3589 13.7569 42.9474 13.3115 43.6578 12.9775C44.3629 12.6488 45.1846 12.4845 46.1177 12.4845C47.0507 12.4845 47.8619 12.6488 48.567 12.9775C49.2721 13.3062 49.8711 13.7569 50.3536 14.3188C50.836 14.8861 51.2018 15.5435 51.4457 16.2963C51.6895 17.0491 51.8115 17.8496 51.8115 18.6978V25.2399C51.8115 26.0881 51.6895 26.8886 51.4457 27.6415C51.2018 28.3943 50.8413 29.057 50.3589 29.6189C49.8764 30.1862 49.2827 30.6315 48.5723 30.9602C47.8619 31.2889 47.0401 31.4532 46.1177 31.4532C45.1952 31.4532 44.3788 31.2889 43.6737 30.9602C42.9686 30.6315 42.3801 30.1809 41.8977 29.6189C41.4205 29.0517 41.0547 28.3943 40.8109 27.6415C40.567 26.8886 40.4451 26.0881 40.4451 25.2399V18.7084V18.7244ZM42.8254 25.4095C42.8254 25.9397 42.8944 26.438 43.0375 26.8993C43.1806 27.3605 43.3874 27.7634 43.6684 28.1027C43.9494 28.442 44.2886 28.7071 44.6969 28.9085C45.1051 29.1047 45.5769 29.2054 46.1177 29.2054C46.6584 29.2054 47.1356 29.11 47.5438 28.9085C47.9573 28.7124 48.3019 28.442 48.5882 28.1027C48.8691 27.7634 49.0812 27.3658 49.2243 26.9046C49.3675 26.4486 49.4364 25.9503 49.4364 25.4201V18.5441C49.4364 18.0193 49.3622 17.5315 49.219 17.0703C49.0759 16.6091 48.8638 16.2114 48.5829 15.8668C48.3019 15.5223 47.9573 15.2519 47.5491 15.0504C47.1409 14.849 46.6637 14.7482 46.123 14.7482C45.5822 14.7482 45.121 14.849 44.7075 15.0451C44.294 15.2413 43.9494 15.5116 43.6737 15.8562C43.3927 16.2008 43.1859 16.6038 43.0428 17.065C42.8997 17.5262 42.8307 18.0193 42.8307 18.5441V25.4095H42.8254Z" fill="black"/>
<path id="Vector_5" d="M53.9956 13.2479C53.9956 13.1047 54.0327 12.9934 54.1069 12.9192C54.1812 12.845 54.2713 12.8079 54.3826 12.8079H64.694C64.7947 12.8079 64.8849 12.845 64.9591 12.9192C65.0333 12.9934 65.0704 13.0994 65.0704 13.2479V14.674C65.0704 14.8224 65.0333 14.9232 64.9591 14.9868C64.8849 15.0504 64.8 15.0822 64.694 15.0822H60.7232V30.7004C60.7232 30.8488 60.6861 30.9549 60.6172 31.0291C60.5482 31.1033 60.4581 31.1404 60.3468 31.1404H58.7298C58.6079 31.1404 58.5178 31.1033 58.4489 31.0291C58.3799 30.9549 58.3428 30.8488 58.3428 30.7004V15.0822H54.3826C54.2713 15.0822 54.1812 15.0504 54.1069 14.9868C54.0327 14.9232 53.9956 14.8171 53.9956 14.674V13.2479Z" fill="black"/>
<path id="Vector_6" d="M145.764 13.2479C145.764 13.1047 145.802 12.9934 145.876 12.9192C145.95 12.845 146.04 12.8079 146.151 12.8079H156.463C156.564 12.8079 156.654 12.845 156.728 12.9192C156.802 12.9934 156.839 13.0994 156.839 13.2479V14.674C156.839 14.8224 156.802 14.9232 156.728 14.9868C156.654 15.0504 156.569 15.0822 156.463 15.0822H152.492V30.7004C152.492 30.8488 152.46 30.9549 152.391 31.0291C152.322 31.1033 152.232 31.1404 152.121 31.1404H150.504C150.382 31.1404 150.292 31.1033 150.223 31.0291C150.154 30.9549 150.122 30.8488 150.122 30.7004V15.0822H146.162C146.051 15.0822 145.961 15.0504 145.886 14.9868C145.812 14.9232 145.775 14.8171 145.775 14.674V13.2479H145.764Z" fill="black"/>
<path id="Vector_7" d="M169.664 30.6527C169.717 30.8012 169.706 30.9178 169.642 31.0079C169.579 31.098 169.483 31.1405 169.351 31.1405H167.692C167.596 31.1405 167.506 31.114 167.411 31.0609C167.315 31.0079 167.252 30.9125 167.22 30.7641L166.361 27.3817H160.805L159.957 30.7641C159.925 30.9125 159.856 31.0079 159.766 31.0609C159.67 31.114 159.58 31.1405 159.485 31.1405H157.825C157.698 31.1405 157.603 31.0927 157.544 31.0079C157.486 30.9178 157.476 30.8012 157.518 30.6527L162.417 13.1949C162.459 13.0518 162.523 12.9457 162.602 12.8874C162.682 12.8291 162.777 12.7973 162.878 12.7973H164.304C164.405 12.7973 164.5 12.8291 164.585 12.8874C164.67 12.9457 164.733 13.0518 164.776 13.1949L169.658 30.6527H169.664ZM161.362 25.2293H165.82L163.79 17.1816L163.599 15.8192L163.408 17.1816L161.367 25.2293H161.362Z" fill="black"/>
<path id="Vector_8" d="M172.548 13.3752C172.548 13.2108 172.59 13.0836 172.67 12.9829C172.749 12.8821 172.871 12.8344 173.035 12.8344H174.679C175.002 12.8344 175.167 13.0147 175.167 13.3752V15.5753C175.167 15.851 175.119 16.0842 175.023 16.2751C174.928 16.4659 174.801 16.625 174.647 16.7522C174.488 16.8741 174.308 16.9696 174.101 17.0279C173.894 17.0862 173.682 17.118 173.47 17.118C173.205 17.118 173.072 17.012 173.072 16.7946V16.2698C173.072 16.169 173.11 16.0948 173.189 16.0524C173.269 16.01 173.359 15.9888 173.459 15.9888C173.576 15.9888 173.661 15.957 173.709 15.8987C173.756 15.8404 173.778 15.7502 173.778 15.6389C173.778 15.5276 173.756 15.448 173.719 15.4003C173.682 15.3526 173.608 15.3314 173.507 15.3314H172.982C172.86 15.3314 172.76 15.2943 172.675 15.2148C172.59 15.1353 172.548 15.0133 172.548 14.8437V13.3805V13.3752Z" fill="black"/>
<path id="Vector_9" d="M179.673 13.285C179.673 12.9669 179.816 12.8079 180.097 12.8079H181.629C181.91 12.8079 182.053 12.9669 182.053 13.285V28.8767H188.055C188.171 28.8767 188.272 28.9085 188.341 28.9721C188.415 29.0357 188.452 29.1418 188.452 29.2849V30.7004C188.452 30.8488 188.415 30.9549 188.341 31.0291C188.267 31.1033 188.171 31.1404 188.055 31.1404H180.097C179.816 31.1404 179.673 30.9814 179.673 30.6633V13.285Z" fill="black"/>
<path id="Vector_10" d="M192.259 13.285C192.259 12.9669 192.402 12.8079 192.693 12.8079H194.225C194.501 12.8079 194.639 12.9669 194.639 13.285V30.6633C194.639 30.9814 194.501 31.1404 194.225 31.1404H192.693C192.402 31.1404 192.259 30.9814 192.259 30.6633V13.285Z" fill="black"/>
<path id="Vector_11" d="M202.459 18.4275L201.997 16.7575L202.151 18.4169L202.252 30.6792C202.268 30.9867 202.141 31.1405 201.865 31.1405H200.359C200.221 31.1405 200.126 31.098 200.078 31.0132C200.025 30.9284 199.999 30.8118 199.999 30.6686V13.2214C200.009 13.0942 200.041 12.9881 200.11 12.9139C200.174 12.8344 200.264 12.7973 200.386 12.7973H202.199C202.31 12.7973 202.39 12.8291 202.437 12.898C202.485 12.9669 202.528 13.0624 202.575 13.179L206.801 24.3864L207.007 25.452L207.214 24.3704L211.461 13.1737C211.503 13.0518 211.551 12.9616 211.598 12.8927C211.646 12.8238 211.726 12.792 211.837 12.792H213.624C213.74 12.792 213.836 12.8291 213.899 12.9086C213.963 12.9881 214 13.0889 214.005 13.2161V30.6633C214.021 30.9814 213.91 31.1405 213.661 31.1405H212.155C211.901 31.1405 211.773 30.9867 211.773 30.6792L211.89 18.4275L212.033 16.8052L211.598 18.4275L207.999 27.9012C207.956 28.0497 207.903 28.1504 207.845 28.2034C207.787 28.2617 207.702 28.2883 207.601 28.2883H206.445C206.35 28.2883 206.276 28.2617 206.212 28.2034C206.154 28.1504 206.101 28.0497 206.058 27.9012L202.475 18.4275H202.459Z" fill="black"/>
<path id="Vector_12" d="M139.641 13.8205L137.828 14.1333C134.128 14.7747 130.687 15.7555 127.554 16.9059V6.98685L126.584 7.42157C124.389 8.40765 122.305 9.43614 120.317 10.5229L120.248 0.132021L119.199 0.805311C114.083 4.07103 109.396 7.78207 105.208 11.8695C101.174 8.05775 96.6303 4.35201 91.6363 0.821215L90.5548 0.0578003V10.8304C88.3918 9.61639 86.1758 8.50838 83.9121 7.517L82.9472 7.09288L82.9949 16.3175C79.6815 15.1777 76.3468 14.4354 73.0387 14.1014L71.4111 13.9371L84.4316 30.2074L84.3733 18.2949C86.6105 19.1697 88.6834 20.1664 90.5548 21.1895V31.5009L90.6927 31.6812C94.5203 36.8342 104.593 45.2159 105.017 45.5711L105.452 45.9316L105.892 45.5711C106.321 45.2212 116.394 36.9244 120.227 31.5699L120.455 31.1829L120.392 21.5819C122.152 20.6541 124.087 19.7422 126.181 18.894V30.2498L139.641 13.8099V13.8205ZM127.554 18.3692C130.221 17.3672 133.115 16.4871 136.217 15.8403L127.554 26.4168V18.3692ZM74.5549 15.6654C77.545 16.0948 80.376 16.8476 82.9949 17.7807L83.0373 26.2684L74.5549 15.6654ZM118.891 2.64493L118.907 11.3235C115.843 13.0836 113.012 14.9868 110.351 17.0915C109.773 16.4553 109.174 15.8191 108.564 15.183C107.795 14.3877 107.005 13.5978 106.194 12.8079C110.017 9.08094 114.237 5.70389 118.891 2.64493ZM95.8245 22.8012C94.5415 21.9371 93.2427 21.1312 91.9279 20.3837V13.2161C94.4726 14.7535 96.9325 16.45 99.297 18.2896C98.0935 19.7422 96.9378 21.2479 95.8245 22.7959M100.363 19.1326C101.704 20.2141 103.008 21.3433 104.275 22.5149C103.05 23.7502 101.852 25.049 100.675 26.4168C99.5886 25.5209 98.3427 24.556 96.9431 23.5699C98.0352 22.0431 99.175 20.564 100.357 19.1326M109.285 17.9397C107.896 19.0849 106.555 20.283 105.251 21.55C103.952 20.3466 102.616 19.1909 101.243 18.0829C102.515 16.5932 103.84 15.1511 105.224 13.7622C106.655 15.1458 108.007 16.5401 109.285 17.945M109.078 27.3658C107.239 28.8396 105.972 30.0324 105.314 30.6792C104.683 30.0165 103.464 28.7972 101.725 27.3022C102.881 25.9556 104.063 24.6779 105.272 23.4586C106.581 24.7097 107.848 26.0139 109.073 27.3658M100.834 28.3519C103.353 30.5202 104.763 32.1 104.784 32.1265L105.282 32.6885L105.797 32.1371C105.797 32.1371 107.292 30.5573 109.99 28.389C110.849 29.3697 111.687 30.377 112.503 31.4002L105.494 38.0271L98.3745 31.4479C99.1856 30.377 100.002 29.3432 100.834 28.3466M106.247 22.4884C107.525 21.2532 108.84 20.0762 110.202 18.9576C111.596 20.5375 112.89 22.1226 114.083 23.7131C113.956 23.7979 113.828 23.8827 113.706 23.9622C112.386 24.8476 111.199 25.7064 110.16 26.5016C108.903 25.1126 107.599 23.7714 106.253 22.4831M111.262 18.0988C113.653 16.2114 116.182 14.4885 118.902 12.8927L118.913 20.8131C117.577 21.5394 116.347 22.271 115.228 22.9708C114.014 21.3486 112.689 19.721 111.257 18.0988M91.9279 2.71915C96.466 5.99017 100.591 9.37782 104.243 12.8291C103.528 13.5501 102.828 14.2817 102.144 15.0239C101.476 15.7502 100.824 16.4871 100.177 17.2452C97.5422 15.1883 94.7854 13.3115 91.9226 11.6257V2.71915H91.9279ZM86.3454 17.6163C85.688 17.3354 85.0254 17.0703 84.3627 16.8211L84.3256 9.21348C86.4462 10.1783 88.5243 11.2492 90.5548 12.4156V19.6362C89.1605 18.894 87.7556 18.2207 86.3454 17.6163ZM95.0346 23.9304C93.9531 25.4891 92.914 27.0954 91.9279 28.7389V21.9795C93.0465 22.6315 94.0856 23.2942 95.0346 23.9304ZM105.457 44.1662C103.506 42.5174 95.517 35.6785 92.0604 31.2306C93.3434 28.9668 94.7112 26.7932 96.1532 24.7044C97.5051 25.6587 98.7244 26.6024 99.7847 27.4771C98.8092 28.6487 97.855 29.8628 96.906 31.1351L96.5349 31.6282L105.505 39.9197L114.359 31.554L113.977 31.0609C113.038 29.8628 112.074 28.6912 111.077 27.5513C112.079 26.7826 113.208 25.9662 114.47 25.1232C114.608 25.0278 114.751 24.9324 114.899 24.8423C116.405 26.9417 117.73 29.0411 118.859 31.1351C115.419 35.7262 107.414 42.528 105.457 44.1715M118.928 28.4844C118.059 27.0265 117.099 25.5686 116.05 24.1054C116.935 23.5487 117.895 22.9761 118.923 22.4036L118.934 28.4844H118.928ZM120.381 20.0656L120.328 12.1028C122.189 11.0637 124.129 10.0723 126.181 9.12865V17.4414C124.092 18.2631 122.157 19.1538 120.381 20.0656Z" fill="#AE8C5E"/>
</g>
</g>
<defs>
<clipPath id="clip0_715_2905">
<rect width="214" height="45.8844" fill="white" transform="translate(0 0.0578003)"/>
</clipPath>
</defs>
</svg>
